<svg xmlns="http://www.w3.org/2000/svg" xmlns:xlink="http://www.w3.org/1999/xlink" xmlns:lucid="lucid" width="860" height="272"><g transform="translate(-200 -280)" lucid:page-tab-id="7oc-iFSAJyBn"><path d="M0 0h1760v1360H0z" fill="#fff"/><path d="M220 300h200v232H220z" fill="#fff"/><path d="M220 300h200v232H220zM220 340h200M280 340v192" stroke="#000" stroke-width="2" fill="none"/><use xlink:href="#a" transform="matrix(1,0,0,1,230,300) translate(67.025 23.6)"/><use xlink:href="#b" transform="matrix(1,0,0,1,225,342.5) translate(13 17.1)"/><use xlink:href="#c" transform="matrix(1,0,0,1,285,342.5) translate(0 17.1)"/><use xlink:href="#d" transform="matrix(1,0,0,1,285,374.5) translate(0 17.1)"/><use xlink:href="#e" transform="matrix(1,0,0,1,285,406.5) translate(0 17.1)"/><use xlink:href="#f" transform="matrix(1,0,0,1,285,438.5) translate(0 17.1)"/><use xlink:href="#g" transform="matrix(1,0,0,1,285,470.5) translate(0 17.1)"/><use xlink:href="#h" transform="matrix(1,0,0,1,285,502.5) translate(0 17.1)"/><path d="M520 300h200v232H520z" fill="#fff"/><path d="M520 300h200v232H520zM520 340h200M580 340v192" stroke="#000" stroke-width="2" fill="none"/><use xlink:href="#i" transform="matrix(1,0,0,1,530,300) translate(54.574999999999996 23.6)"/><use xlink:href="#b" transform="matrix(1,0,0,1,525,342.5) translate(13 17.1)"/><use xlink:href="#c" transform="matrix(1,0,0,1,585,342.5) translate(0 17.1)"/><use xlink:href="#j" transform="matrix(1,0,0,1,525,374.5) translate(13.524999999999999 17.1)"/><use xlink:href="#k" transform="matrix(1,0,0,1,585,374.5) translate(0 17.1)"/><use xlink:href="#l" transform="matrix(1,0,0,1,585,406.5) translate(0 17.1)"/><use xlink:href="#d" transform="matrix(1,0,0,1,585,438.5) translate(0 17.1)"/><use xlink:href="#g" transform="matrix(1,0,0,1,585,470.5) translate(0 17.1)"/><use xlink:href="#h" transform="matrix(1,0,0,1,585,502.5) translate(0 17.1)"/><path d="M780 300h260v232H780z" fill="#fff"/><path d="M780 300h260v232H780zM780 340h260M840 340v192" stroke="#000" stroke-width="2" fill="none"/><use xlink:href="#m" transform="matrix(1,0,0,1,790,300) translate(51.125 23.6)"/><use xlink:href="#n" transform="matrix(1,0,0,1,790,300) translate(118.025 23.6)"/><use xlink:href="#b" transform="matrix(1,0,0,1,785,342.5) translate(13 17.1)"/><use xlink:href="#c" transform="matrix(1,0,0,1,845,342.5) translate(0 17.1)"/><use xlink:href="#j" transform="matrix(1,0,0,1,785,374.5) translate(13.524999999999999 17.1)"/><use xlink:href="#o" transform="matrix(1,0,0,1,845,374.5) translate(0 17.1)"/><use xlink:href="#p" transform="matrix(1,0,0,1,845,406.5) translate(0 17.1)"/><use xlink:href="#q" transform="matrix(1,0,0,1,845,438.5) translate(0 17.1)"/><use xlink:href="#g" transform="matrix(1,0,0,1,845,470.5) translate(0 17.1)"/><use xlink:href="#h" transform="matrix(1,0,0,1,845,502.5) translate(0 17.1)"/><path d="M421.5 420h97" stroke="#000" fill="none"/><path d="M421.5 420.5h-.5v-1h.5zM519 420.5h-.5v-1h.5z"/><path d="M421.5 420h97M421.5 420h-.5M518.5 420h.5M721.5 420.04h57" stroke="#000" fill="none"/><path d="M721.5 420.54h-.5v-1h.5zM779 420.54h-.5v-1h.5z"/><defs><path d="M127-220V0H93v-220H8v-28h204v28h-85" id="r"/><path d="M141-36C126-15 110 5 73 4 37 3 15-17 15-53c-1-64 63-63 125-63 3-35-9-54-41-54-24 1-41 7-42 31l-33-3c5-37 33-52 76-52 45 0 72 20 72 64v82c-1 20 7 32 28 27v20c-31 9-61-2-59-35zM48-53c0 20 12 33 32 33 41-3 63-29 60-74-43 2-92-5-92 41" id="s"/><path d="M135-143c-3-34-86-38-87 0 15 53 115 12 119 90S17 21 10-45l28-5c4 36 97 45 98 0-10-56-113-15-118-90-4-57 82-63 122-42 12 7 21 19 24 35" id="t"/><path d="M143 0L79-87 56-68V0H24v-261h32v163l83-92h37l-77 82L181 0h-38" id="u"/><g id="a"><use transform="matrix(0.05,0,0,0.05,0,0)" xlink:href="#r"/><use transform="matrix(0.05,0,0,0.05,8.950000000000001,0)" xlink:href="#s"/><use transform="matrix(0.05,0,0,0.05,18.950000000000003,0)" xlink:href="#t"/><use transform="matrix(0.05,0,0,0.05,27.950000000000003,0)" xlink:href="#u"/><use transform="matrix(0.05,0,0,0.05,36.95,0)" xlink:href="#t"/></g><path d="M30-248c87 1 191-15 191 75 0 78-77 80-158 76V0H30v-248zm33 125c57 0 124 11 124-50 0-59-68-47-124-48v98" id="v"/><path d="M194 0L95-120 63-95V0H30v-248h33v124l119-124h40L117-140 236 0h-42" id="w"/><g id="b"><use transform="matrix(0.05,0,0,0.05,0,0)" xlink:href="#v"/><use transform="matrix(0.05,0,0,0.05,12,0)" xlink:href="#w"/></g><path d="M24-231v-30h32v30H24zM24 0v-190h32V0H24" id="x"/><path d="M85-194c31 0 48 13 60 33l-1-100h32l1 261h-30c-2-10 0-23-3-31C134-8 116 4 85 4 32 4 16-35 15-94c0-66 23-100 70-100zm9 24c-40 0-46 34-46 75 0 40 6 74 45 74 42 0 51-32 51-76 0-42-9-74-50-73" id="y"/><g id="c"><use transform="matrix(0.05,0,0,0.05,0,0)" xlink:href="#x"/><use transform="matrix(0.05,0,0,0.05,3.95,0)" xlink:href="#y"/></g><path d="M59-47c-2 24 18 29 38 22v24C64 9 27 4 27-40v-127H5v-23h24l9-43h21v43h35v23H59v120" id="z"/><path d="M84 4C-5 8 30-112 23-190h32v120c0 31 7 50 39 49 72-2 45-101 50-169h31l1 190h-30c-1-10 1-25-2-33-11 22-28 36-60 37" id="A"/><g id="d"><use transform="matrix(0.05,0,0,0.05,0,0)" xlink:href="#t"/><use transform="matrix(0.05,0,0,0.05,9,0)" xlink:href="#z"/><use transform="matrix(0.05,0,0,0.05,14,0)" xlink:href="#s"/><use transform="matrix(0.05,0,0,0.05,24,0)" xlink:href="#z"/><use transform="matrix(0.05,0,0,0.05,29,0)" xlink:href="#A"/><use transform="matrix(0.05,0,0,0.05,39,0)" xlink:href="#t"/></g><path d="M115-194c53 0 69 39 70 98 0 66-23 100-70 100C84 3 66-7 56-30L54 0H23l1-261h32v101c10-23 28-34 59-34zm-8 174c40 0 45-34 45-75 0-40-5-75-45-74-42 0-51 32-51 76 0 43 10 73 51 73" id="B"/><path d="M210-169c-67 3-38 105-44 169h-31v-121c0-29-5-50-35-48C34-165 62-65 56 0H25l-1-190h30c1 10-1 24 2 32 10-44 99-50 107 0 11-21 27-35 58-36 85-2 47 119 55 194h-31v-121c0-29-5-49-35-48" id="C"/><path d="M100-194c63 0 86 42 84 106H49c0 40 14 67 53 68 26 1 43-12 49-29l28 8c-11 28-37 45-77 45C44 4 14-33 15-96c1-61 26-98 85-98zm52 81c6-60-76-77-97-28-3 7-6 17-6 28h103" id="D"/><path d="M-5 72V49h209v23H-5" id="E"/><path d="M179-190L93 31C79 59 56 82 12 73V49c39 6 53-20 64-50L1-190h34L92-34l54-156h33" id="F"/><g id="e"><use transform="matrix(0.05,0,0,0.05,0,0)" xlink:href="#t"/><use transform="matrix(0.05,0,0,0.05,9,0)" xlink:href="#A"/><use transform="matrix(0.05,0,0,0.05,19,0)" xlink:href="#B"/><use transform="matrix(0.05,0,0,0.05,29,0)" xlink:href="#C"/><use transform="matrix(0.05,0,0,0.05,43.95,0)" xlink:href="#x"/><use transform="matrix(0.05,0,0,0.05,47.900000000000006,0)" xlink:href="#z"/><use transform="matrix(0.05,0,0,0.05,52.900000000000006,0)" xlink:href="#z"/><use transform="matrix(0.05,0,0,0.05,57.900000000000006,0)" xlink:href="#D"/><use transform="matrix(0.05,0,0,0.05,67.9,0)" xlink:href="#y"/><use transform="matrix(0.05,0,0,0.05,77.9,0)" xlink:href="#E"/><use transform="matrix(0.05,0,0,0.05,87.9,0)" xlink:href="#B"/><use transform="matrix(0.05,0,0,0.05,97.9,0)" xlink:href="#F"/></g><path d="M114-163C36-179 61-72 57 0H25l-1-190h30c1 12-1 29 2 39 6-27 23-49 58-41v29" id="G"/><path d="M101-234c-31-9-42 10-38 44h38v23H63V0H32v-167H5v-23h27c-7-52 17-82 69-68v24" id="H"/><path d="M117-194c89-4 53 116 60 194h-32v-121c0-31-8-49-39-48C34-167 62-67 57 0H25l-1-190h30c1 10-1 24 2 32 11-22 29-35 61-36" id="I"/><path d="M96-169c-40 0-48 33-48 73s9 75 48 75c24 0 41-14 43-38l32 2c-6 37-31 61-74 61-59 0-76-41-82-99-10-93 101-131 147-64 4 7 5 14 7 22l-32 3c-4-21-16-35-41-35" id="J"/><g id="f"><use transform="matrix(0.05,0,0,0.05,0,0)" xlink:href="#G"/><use transform="matrix(0.05,0,0,0.05,5.95,0)" xlink:href="#D"/><use transform="matrix(0.05,0,0,0.05,15.949999999999998,0)" xlink:href="#H"/><use transform="matrix(0.05,0,0,0.05,20.95,0)" xlink:href="#D"/><use transform="matrix(0.05,0,0,0.05,30.950000000000003,0)" xlink:href="#G"/><use transform="matrix(0.05,0,0,0.05,36.9,0)" xlink:href="#D"/><use transform="matrix(0.05,0,0,0.05,46.9,0)" xlink:href="#I"/><use transform="matrix(0.05,0,0,0.05,56.900000000000006,0)" xlink:href="#J"/><use transform="matrix(0.05,0,0,0.05,65.9,0)" xlink:href="#D"/><use transform="matrix(0.05,0,0,0.05,75.9,0)" xlink:href="#E"/><use transform="matrix(0.05,0,0,0.05,85.9,0)" xlink:href="#x"/><use transform="matrix(0.05,0,0,0.05,89.85000000000001,0)" xlink:href="#y"/></g><g id="g"><use transform="matrix(0.05,0,0,0.05,0,0)" xlink:href="#J"/><use transform="matrix(0.05,0,0,0.05,9,0)" xlink:href="#G"/><use transform="matrix(0.05,0,0,0.05,14.949999999999998,0)" xlink:href="#D"/><use transform="matrix(0.05,0,0,0.05,24.95,0)" xlink:href="#s"/><use transform="matrix(0.05,0,0,0.05,34.95,0)" xlink:href="#z"/><use transform="matrix(0.05,0,0,0.05,39.95,0)" xlink:href="#D"/><use transform="matrix(0.05,0,0,0.05,49.95,0)" xlink:href="#y"/><use transform="matrix(0.05,0,0,0.05,59.95,0)" xlink:href="#E"/><use transform="matrix(0.05,0,0,0.05,69.95,0)" xlink:href="#s"/><use transform="matrix(0.05,0,0,0.05,79.95,0)" xlink:href="#z"/></g><path d="M100-194c62-1 85 37 85 99 1 63-27 99-86 99S16-35 15-95c0-66 28-99 85-99zM99-20c44 1 53-31 53-75 0-43-8-75-51-75s-53 32-53 75 10 74 51 75" id="K"/><g id="h"><use transform="matrix(0.05,0,0,0.05,0,0)" xlink:href="#C"/><use transform="matrix(0.05,0,0,0.05,14.950000000000001,0)" xlink:href="#K"/><use transform="matrix(0.05,0,0,0.05,24.950000000000003,0)" xlink:href="#y"/><use transform="matrix(0.05,0,0,0.05,34.95,0)" xlink:href="#x"/><use transform="matrix(0.05,0,0,0.05,38.900000000000006,0)" xlink:href="#H"/><use transform="matrix(0.05,0,0,0.05,43.900000000000006,0)" xlink:href="#x"/><use transform="matrix(0.05,0,0,0.05,47.85000000000001,0)" xlink:href="#D"/><use transform="matrix(0.05,0,0,0.05,57.85,0)" xlink:href="#y"/><use transform="matrix(0.05,0,0,0.05,67.85000000000001,0)" xlink:href="#E"/><use transform="matrix(0.05,0,0,0.05,77.85000000000001,0)" xlink:href="#s"/><use transform="matrix(0.05,0,0,0.05,87.85000000000001,0)" xlink:href="#z"/></g><path d="M30-248c118-7 216 8 213 122C240-48 200 0 122 0H30v-248zM63-27c89 8 146-16 146-99s-60-101-146-95v194" id="L"/><g id="i"><use transform="matrix(0.05,0,0,0.05,0,0)" xlink:href="#L"/><use transform="matrix(0.05,0,0,0.05,12.950000000000001,0)" xlink:href="#K"/><use transform="matrix(0.05,0,0,0.05,22.950000000000003,0)" xlink:href="#C"/><use transform="matrix(0.05,0,0,0.05,37.900000000000006,0)" xlink:href="#s"/><use transform="matrix(0.05,0,0,0.05,47.900000000000006,0)" xlink:href="#x"/><use transform="matrix(0.05,0,0,0.05,51.85,0)" xlink:href="#I"/><use transform="matrix(0.05,0,0,0.05,61.85,0)" xlink:href="#t"/></g><path d="M63-220v92h138v28H63V0H30v-248h175v28H63" id="M"/><g id="j"><use transform="matrix(0.05,0,0,0.05,0,0)" xlink:href="#M"/><use transform="matrix(0.05,0,0,0.05,10.950000000000001,0)" xlink:href="#w"/></g><g id="k"><use transform="matrix(0.05,0,0,0.05,0,0)" xlink:href="#z"/><use transform="matrix(0.05,0,0,0.05,5,0)" xlink:href="#s"/><use transform="matrix(0.05,0,0,0.05,15,0)" xlink:href="#t"/><use transform="matrix(0.05,0,0,0.05,24,0)" xlink:href="#u"/><use transform="matrix(0.05,0,0,0.05,33,0)" xlink:href="#E"/><use transform="matrix(0.05,0,0,0.05,43,0)" xlink:href="#x"/><use transform="matrix(0.05,0,0,0.05,46.95,0)" xlink:href="#y"/></g><g id="l"><use transform="matrix(0.05,0,0,0.05,0,0)" xlink:href="#y"/><use transform="matrix(0.05,0,0,0.05,10,0)" xlink:href="#K"/><use transform="matrix(0.05,0,0,0.05,20,0)" xlink:href="#C"/><use transform="matrix(0.05,0,0,0.05,34.95,0)" xlink:href="#s"/><use transform="matrix(0.05,0,0,0.05,44.95,0)" xlink:href="#x"/><use transform="matrix(0.05,0,0,0.05,48.900000000000006,0)" xlink:href="#I"/><use transform="matrix(0.05,0,0,0.05,58.900000000000006,0)" xlink:href="#E"/><use transform="matrix(0.05,0,0,0.05,68.9,0)" xlink:href="#I"/><use transform="matrix(0.05,0,0,0.05,78.9,0)" xlink:href="#s"/><use transform="matrix(0.05,0,0,0.05,88.9,0)" xlink:href="#C"/><use transform="matrix(0.05,0,0,0.05,103.85000000000001,0)" xlink:href="#D"/></g><path d="M233-177c-1 41-23 64-60 70L243 0h-38l-65-103H63V0H30v-248c88 3 205-21 203 71zM63-129c60-2 137 13 137-47 0-61-80-42-137-45v92" id="N"/><path d="M24 0v-261h32V0H24" id="O"/><g id="m"><use transform="matrix(0.05,0,0,0.05,0,0)" xlink:href="#N"/><use transform="matrix(0.05,0,0,0.05,12.950000000000001,0)" xlink:href="#D"/><use transform="matrix(0.05,0,0,0.05,22.950000000000003,0)" xlink:href="#O"/><use transform="matrix(0.05,0,0,0.05,26.900000000000002,0)" xlink:href="#s"/><use transform="matrix(0.05,0,0,0.05,36.900000000000006,0)" xlink:href="#z"/><use transform="matrix(0.05,0,0,0.05,41.900000000000006,0)" xlink:href="#D"/><use transform="matrix(0.05,0,0,0.05,51.900000000000006,0)" xlink:href="#y"/></g><g id="n"><use transform="matrix(0.05,0,0,0.05,0,0)" xlink:href="#L"/><use transform="matrix(0.05,0,0,0.05,12.950000000000001,0)" xlink:href="#K"/><use transform="matrix(0.05,0,0,0.05,22.950000000000003,0)" xlink:href="#C"/><use transform="matrix(0.05,0,0,0.05,37.900000000000006,0)" xlink:href="#s"/><use transform="matrix(0.05,0,0,0.05,47.900000000000006,0)" xlink:href="#x"/><use transform="matrix(0.05,0,0,0.05,51.85,0)" xlink:href="#I"/><use transform="matrix(0.05,0,0,0.05,61.85,0)" xlink:href="#t"/></g><g id="o"><use transform="matrix(0.05,0,0,0.05,0,0)" xlink:href="#y"/><use transform="matrix(0.05,0,0,0.05,10,0)" xlink:href="#K"/><use transform="matrix(0.05,0,0,0.05,20,0)" xlink:href="#C"/><use transform="matrix(0.05,0,0,0.05,34.95,0)" xlink:href="#s"/><use transform="matrix(0.05,0,0,0.05,44.95,0)" xlink:href="#x"/><use transform="matrix(0.05,0,0,0.05,48.900000000000006,0)" xlink:href="#I"/><use transform="matrix(0.05,0,0,0.05,58.900000000000006,0)" xlink:href="#E"/><use transform="matrix(0.05,0,0,0.05,68.9,0)" xlink:href="#x"/><use transform="matrix(0.05,0,0,0.05,72.85000000000001,0)" xlink:href="#y"/></g><g id="p"><use transform="matrix(0.05,0,0,0.05,0,0)" xlink:href="#G"/><use transform="matrix(0.05,0,0,0.05,5.95,0)" xlink:href="#D"/><use transform="matrix(0.05,0,0,0.05,15.949999999999998,0)" xlink:href="#O"/><use transform="matrix(0.05,0,0,0.05,19.9,0)" xlink:href="#s"/><use transform="matrix(0.05,0,0,0.05,29.899999999999995,0)" xlink:href="#z"/><use transform="matrix(0.05,0,0,0.05,34.9,0)" xlink:href="#D"/><use transform="matrix(0.05,0,0,0.05,44.9,0)" xlink:href="#y"/><use transform="matrix(0.05,0,0,0.05,54.900000000000006,0)" xlink:href="#E"/><use transform="matrix(0.05,0,0,0.05,64.9,0)" xlink:href="#y"/><use transform="matrix(0.05,0,0,0.05,74.9,0)" xlink:href="#K"/><use transform="matrix(0.05,0,0,0.05,84.9,0)" xlink:href="#C"/><use transform="matrix(0.05,0,0,0.05,99.85000000000001,0)" xlink:href="#s"/><use transform="matrix(0.05,0,0,0.05,109.85000000000001,0)" xlink:href="#x"/><use transform="matrix(0.05,0,0,0.05,113.80000000000001,0)" xlink:href="#I"/><use transform="matrix(0.05,0,0,0.05,123.80000000000001,0)" xlink:href="#E"/><use transform="matrix(0.05,0,0,0.05,133.8,0)" xlink:href="#I"/><use transform="matrix(0.05,0,0,0.05,143.8,0)" xlink:href="#s"/><use transform="matrix(0.05,0,0,0.05,153.8,0)" xlink:href="#C"/><use transform="matrix(0.05,0,0,0.05,168.75,0)" xlink:href="#D"/></g><g id="q"><use transform="matrix(0.05,0,0,0.05,0,0)" xlink:href="#s"/><use transform="matrix(0.05,0,0,0.05,10,0)" xlink:href="#J"/><use transform="matrix(0.05,0,0,0.05,19,0)" xlink:href="#z"/><use transform="matrix(0.05,0,0,0.05,24,0)" xlink:href="#x"/><use transform="matrix(0.05,0,0,0.05,27.950000000000003,0)" xlink:href="#K"/><use transform="matrix(0.05,0,0,0.05,37.95,0)" xlink:href="#I"/></g></defs></g></svg>