<svg xmlns="http://www.w3.org/2000/svg" xmlns:xlink="http://www.w3.org/1999/xlink" xmlns:lucid="lucid" width="1120" height="880"><g transform="translate(-440 -60)" lucid:page-tab-id="tI.9lNahg1D_"><path d="M0 0h1760v1360H0z" fill="#fff"/><path d="M480 239.08h710v499.84H480z" fill-opacity="0"/><path d="M499.72 239.08h19.72m9.87 0h19.73m9.86 0h19.7m9.87 0h19.72m9.86 0h19.72m9.86 0h19.72m9.86 0h19.72m9.87 0h19.73m9.86 0h19.7m9.87 0h19.72m9.86 0h19.72m9.86 0h19.72m9.86 0h19.72m9.87 0h19.73m9.86 0h19.7m9.87 0h19.72m9.86 0h19.72m9.86 0h19.72m9.86 0h19.72m9.87 0h19.73m9.86 0h19.7m9.87 0h19.72m9.86 0h19.72m9.86 0h9.86v9.8m0 9.8v19.6m0 9.8v19.6m0 9.8v19.6m0 9.8v19.6m0 9.8v19.6m0 9.8v19.62m0 9.8v19.6m0 9.8v19.6m0 9.8v19.6m0 9.8v19.6m0 9.8v19.6m0 9.8v19.6m0 9.8v19.6m0 9.8v19.6m0 9.8v19.6m0 9.8v19.62m0 9.8v9.8h-9.86m-9.86 0h-19.72m-9.87 0h-19.73m-9.86 0h-19.7m-9.87 0h-19.72m-9.86 0h-19.72m-9.86 0h-19.72m-9.86 0h-19.72m-9.87 0h-19.73m-9.86 0h-19.7m-9.87 0H884.3m-9.86 0h-19.72m-9.86 0h-19.72m-9.86 0h-19.72m-9.87 0h-19.73m-9.86 0h-19.7m-9.87 0H706.8m-9.86 0h-19.72m-9.86 0h-19.72m-9.86 0h-19.72m-9.87 0h-19.73m-9.86 0h-19.7m-9.87 0H529.3m-9.86 0h-19.72m-9.86 0H480v-9.8m0-9.8v-19.6m0-9.8v-19.6m0-9.8v-19.6m0-9.8v-19.6m0-9.8v-19.6m0-9.8V552.7m0-9.8v-19.6m0-9.8v-19.6m0-9.8v-19.6m0-9.8v-19.6m0-9.8v-19.6m0-9.8v-19.6m0-9.8v-19.6m0-9.8v-19.6m0-9.8v-19.6m0-9.8v-19.62m0-9.8v-9.8h9.86" stroke="#999" stroke-width="2" fill="none"/><use xlink:href="#a" transform="matrix(1,0,0,1,485,244.08333333333331) translate(0 487.91091199999994)"/><use xlink:href="#b" transform="matrix(1,0,0,1,485,244.08333333333331) translate(97.85 487.91091199999994)"/><path d="M900 521h240v139H900z" stroke="#000" stroke-width="2" fill="#fff"/><path d="M900 558.33h240" stroke="#000" stroke-width="2" fill="none"/><use xlink:href="#c" transform="matrix(1,0,0,1,908,529) translate(42.987654320987644 14.555555555555555)"/><use xlink:href="#d" transform="matrix(1,0,0,1,908,529) translate(78.49382716049382 14.555555555555555)"/><use xlink:href="#e" transform="matrix(1,0,0,1,908,529) translate(113.01234567901234 14.555555555555555)"/><use xlink:href="#f" transform="matrix(1,0,0,1,912,566.3333333333334) translate(45.358024691358025 35.888888888888886)"/><use xlink:href="#g" transform="matrix(1,0,0,1,912,566.3333333333334) translate(142 35.888888888888886)"/><use xlink:href="#h" transform="matrix(1,0,0,1,912,566.3333333333334) translate(34.518518518518505 57.22222222222222)"/><use xlink:href="#i" transform="matrix(1,0,0,1,912,566.3333333333334) translate(98.61728395061728 57.22222222222222)"/><use xlink:href="#j" transform="matrix(1,0,0,1,912,566.3333333333334) translate(117.33333333333333 57.22222222222222)"/><path d="M900 780h240v140H900z" stroke="#000" stroke-width="2" fill="#fff"/><path d="M900 817.6h240" stroke="#000" stroke-width="2" fill="none"/><use xlink:href="#k" transform="matrix(1,0,0,1,908,788) translate(53.64999999999999 14.6)"/><use xlink:href="#l" transform="matrix(1,0,0,1,912,825.6) translate(11.574999999999989 36.3)"/><use xlink:href="#m" transform="matrix(1,0,0,1,912,825.6) translate(81.52499999999999 36.3)"/><use xlink:href="#n" transform="matrix(1,0,0,1,912,825.6) translate(174.425 36.3)"/><use xlink:href="#o" transform="matrix(1,0,0,1,912,825.6) translate(44.099999999999994 57.9)"/><use xlink:href="#p" transform="matrix(1,0,0,1,912,825.6) translate(104 57.9)"/><path d="M460 80h240v118H460z" stroke="#000" stroke-width="2" fill="#fff"/><path d="M460 117.6h240" stroke="#000" stroke-width="2" fill="none"/><use xlink:href="#q" transform="matrix(1,0,0,1,468,88) translate(75.125 14.6)"/><use xlink:href="#r" transform="matrix(1,0,0,1,472,125.6) translate(7.674999999999997 36.1)"/><use xlink:href="#s" transform="matrix(1,0,0,1,472,125.6) translate(78.525 36.1)"/><use xlink:href="#t" transform="matrix(1,0,0,1,472,125.6) translate(98.525 36.1)"/><use xlink:href="#u" transform="matrix(1,0,0,1,472,125.6) translate(140.425 36.1)"/><path d="M1020 662v98.5" stroke="#000" stroke-width="2" fill="none"/><path d="M1021 662.03h-2V661h2z"/><path d="M1020 775.76l-4.64-14.26h9.28z" stroke="#000" stroke-width="2"/><use xlink:href="#v" transform="matrix(1,0,0,1,1028.0000000000002,700.9333333333334) translate(0.005000000000002558 14.4)"/><use xlink:href="#w" transform="matrix(1,0,0,1,1028.0000000000002,700.9333333333334) translate(62.955000000000005 14.4)"/><use xlink:href="#x" transform="matrix(1,0,0,1,1028.0000000000002,700.9333333333334) translate(24.979999999999997 36)"/><use xlink:href="#y" transform="matrix(1,0,0,1,1028.0000000000002,700.9333333333334) translate(23.554999999999993 57.6)"/><path d="M520 791h240v118H520z" stroke="#000" stroke-width="2" fill="#fff"/><path d="M520 828.6h240" stroke="#000" stroke-width="2" fill="none"/><use xlink:href="#z" transform="matrix(1,0,0,1,528,799) translate(84.05 14.6)"/><use xlink:href="#A" transform="matrix(1,0,0,1,532,836.6) translate(19.099999999999994 36.1)"/><use xlink:href="#B" transform="matrix(1,0,0,1,532,836.6) translate(87 36.1)"/><use xlink:href="#C" transform="matrix(1,0,0,1,532,836.6) translate(140.95 36.1)"/><path d="M581 438h-2V217.5h2z"/><path d="M581 439h-2v-1.03h2zM584.64 216.5h-9.28l4.64-14.26z"/><path d="M586 217.5h-12l6-18.5zm-9.26-2h6.52L580 205.47z"/><use xlink:href="#D" transform="matrix(1,0,0,1,588,200.93333333333334) translate(0.005000000000002558 14.4)"/><use xlink:href="#E" transform="matrix(1,0,0,1,588,200.93333333333334) translate(53.955000000000005 14.4)"/><use xlink:href="#F" transform="matrix(1,0,0,1,588,200.93333333333334) translate(27.005000000000006 36)"/><use xlink:href="#y" transform="matrix(1,0,0,1,588,200.93333333333334) translate(21.055 57.6)"/><path d="M1020 180v100.5" stroke="#000" stroke-width="2" fill="none"/><path d="M1021 180.03h-2V179h2z"/><path d="M1020 295.76l-4.64-14.26h9.28z" stroke="#000" stroke-width="2"/><use xlink:href="#G" transform="matrix(1,0,0,1,902.0500000000001,183.73333333333335) translate(0.005000000000002558 14.4)"/><use xlink:href="#H" transform="matrix(1,0,0,1,902.0500000000001,183.73333333333335) translate(34.005 14.4)"/><use xlink:href="#y" transform="matrix(1,0,0,1,902.0500000000001,183.73333333333335) translate(19.604999999999997 36)"/><path d="M1058.32 179h-76.64c-.88 0-1.68-.76-1.68-1.7v-5.12c0-18.18 11.92-33.43 29.52-37.7.48-.1.88-.05 1.28.17 5.92 3.2 12.48 3.2 18.4 0 .4-.22.8-.26 1.2-.17 17.68 4.27 29.6 19.52 29.6 37.7v5.13c0 .94-.8 1.7-1.68 1.7zm-74.88-3.43h73.12v-3.4c.08-16.35-10.56-30.07-26.32-34.17-3.36 1.65-6.48 2.4-10.24 2.4s-6.88-.7-10.24-2.4c-15.76 4.1-26.4 17.82-26.32 34.18z" stroke="#fff" stroke-opacity="0" fill="#232f3e"/><path d="M1020 140.3c-3.67 0-6.8-.78-10.03-2.56-9.95-5.58-13.5-18.2-7.93-28.17 5.58-9.95 18.17-13.5 28.1-7.93 6.72 3.76 10.56 10.33 10.56 18.05 0 7.76-3.93 14.36-10.74 18.04-3.22 1.73-6.32 2.56-9.95 2.56zm0-37.83c-6.6-.17-12.26 3.18-15.44 8.96-4.5 8.4-1.4 18.8 6.94 23.34 5.4 2.93 11.36 2.93 16.77 0 5.7-3.1 9-8.68 8.96-15.2-.04-9.5-7.76-17.14-17.22-17.1z" stroke="#fff" stroke-opacity="0" fill="#232f3e"/><use xlink:href="#I" transform="matrix(1,0,0,1,950,188) translate(102.1 14.4)"/><path d="M640 581v190.5" stroke="#000" stroke-width="2" fill="none"/><path d="M641 581.03h-2V580h2z"/><path d="M640 786.76l-4.64-14.26h9.28z" stroke="#000" stroke-width="2"/><use xlink:href="#D" transform="matrix(1,0,0,1,510.1499999999999,622.4) translate(0.005000000000002558 14.4)"/><use xlink:href="#J" transform="matrix(1,0,0,1,510.1499999999999,622.4) translate(53.955000000000005 14.4)"/><use xlink:href="#y" transform="matrix(1,0,0,1,510.1499999999999,622.4) translate(25.555 36)"/><path d="M900 300h240v139H900z" stroke="#000" stroke-width="2" fill="#fff"/><path d="M900 337.33h240" stroke="#000" stroke-width="2" fill="none"/><use xlink:href="#K" transform="matrix(1,0,0,1,908,308) translate(58.222222222222214 14.555555555555555)"/><use xlink:href="#L" transform="matrix(1,0,0,1,908,308) translate(92.74074074074073 14.555555555555555)"/><use xlink:href="#M" transform="matrix(1,0,0,1,912,345.3333333333333) translate(20.98765432098763 35.888888888888886)"/><use xlink:href="#N" transform="matrix(1,0,0,1,912,345.3333333333333) translate(65.72839506172838 35.888888888888886)"/><use xlink:href="#O" transform="matrix(1,0,0,1,912,345.3333333333333) translate(99.30864197530863 35.888888888888886)"/><use xlink:href="#P" transform="matrix(1,0,0,1,912,345.3333333333333) translate(174.32098765432102 35.888888888888886)"/><use xlink:href="#j" transform="matrix(1,0,0,1,912,345.3333333333333) translate(75.92592592592592 57.22222222222222)"/><path d="M1020 441v60.5" stroke="#000" stroke-width="2" fill="none"/><path d="M1021 441.03h-2V440h2z"/><path d="M1020 516.76l-4.64-14.26h9.28z" stroke="#000" stroke-width="2"/><g><use xlink:href="#G" transform="matrix(1,0,0,1,1028.0000000000002,451.7333333333333) translate(0.005000000000002558 14.4)"/><use xlink:href="#H" transform="matrix(1,0,0,1,1028.0000000000002,451.7333333333333) translate(34.005 14.4)"/><use xlink:href="#Q" transform="matrix(1,0,0,1,1028.0000000000002,451.7333333333333) translate(16.555 36)"/></g><path d="M840 368c0 6.63-26.86 12-60 12s-60-5.37-60-12v-96c0-6.63 26.86-12 60-12s60 5.37 60 12z" stroke="#000" stroke-width="2" fill="#fff"/><path d="M840 272c0 6.63-26.86 12-60 12s-60-5.37-60-12" stroke="#000" stroke-width="2" fill="none"/><g><use xlink:href="#R" transform="matrix(1,0,0,1,725,289) translate(17.224999999999994 35.9)"/><use xlink:href="#S" transform="matrix(1,0,0,1,725,289) translate(53.175 35.9)"/><use xlink:href="#T" transform="matrix(1,0,0,1,725,289) translate(6.600000000000001 57.5)"/><use xlink:href="#U" transform="matrix(1,0,0,1,725,289) translate(71.44999999999999 57.5)"/></g><path d="M871 557.67h9.5v2H869V521.6h2zm0-79.27h-2V321h-27v-2h29zM895.76 558.67l-14.26 4.63v-9.27z"/><path d="M899 558.67l-18.5 6v-12.02zm-16.5 3.26l10.03-3.26-10.03-3.26zM842.03 321H841v-2h1.03z"/><g><use xlink:href="#V" transform="matrix(1,0,0,1,823.525,478.4) translate(0 14.4)"/><use xlink:href="#W" transform="matrix(1,0,0,1,823.525,478.4) translate(41.95 14.4)"/><use xlink:href="#X" transform="matrix(1,0,0,1,823.525,478.4) translate(0 36)"/></g><path d="M1300 560h240v140h-240z" stroke="#000" stroke-width="2" fill="#fff"/><path d="M1300 597.6h240" stroke="#000" stroke-width="2" fill="none"/><g><use xlink:href="#Y" transform="matrix(1,0,0,1,1308,568) translate(87.25 14.6)"/></g><g><use xlink:href="#Z" transform="matrix(1,0,0,1,1312,605.6) translate(7.574999999999989 36.3)"/><use xlink:href="#aa" transform="matrix(1,0,0,1,1312,605.6) translate(112.52499999999999 36.3)"/><use xlink:href="#ab" transform="matrix(1,0,0,1,1312,605.6) translate(122.52499999999999 36.3)"/><use xlink:href="#ac" transform="matrix(1,0,0,1,1312,605.6) translate(84.55 57.9)"/></g><path d="M1142 630h138.5" stroke="#000" stroke-width="2" fill="none"/><path d="M1142.03 631H1141v-2h1.03z"/><path d="M1295.76 630l-14.26 4.64v-9.28z" stroke="#000" stroke-width="2"/><g><use xlink:href="#ad" transform="matrix(1,0,0,1,1178.4656666666672,634) translate(0.005000000000002558 14.4)"/><use xlink:href="#ae" transform="matrix(1,0,0,1,1178.4656666666672,634) translate(42.90500000000001 14.4)"/><use xlink:href="#y" transform="matrix(1,0,0,1,1178.4656666666672,634) translate(24.83 36)"/></g><path d="M520 440h240v139H520z" stroke="#000" stroke-width="2" fill="#fff"/><path d="M520 477.33h240" stroke="#000" stroke-width="2" fill="none"/><g><use xlink:href="#c" transform="matrix(1,0,0,1,528,448) translate(27.382716049382708 14.555555555555555)"/><use xlink:href="#af" transform="matrix(1,0,0,1,528,448) translate(62.888888888888886 14.555555555555555)"/><use xlink:href="#e" transform="matrix(1,0,0,1,528,448) translate(128.6172839506173 14.555555555555555)"/></g><g><use xlink:href="#f" transform="matrix(1,0,0,1,532,485.3333333333333) translate(41.4320987654321 35.888888888888886)"/><use xlink:href="#ag" transform="matrix(1,0,0,1,532,485.3333333333333) translate(138.07407407407408 35.888888888888886)"/><use xlink:href="#ah" transform="matrix(1,0,0,1,532,485.3333333333333) translate(28.617283950617278 57.22222222222222)"/><use xlink:href="#ai" transform="matrix(1,0,0,1,532,485.3333333333333) translate(111.48148148148148 57.22222222222222)"/></g><path d="M675.67 438h-2v-24.07h2zm24.83-117h-24.83v49.73h-2V319h26.83z"/><path d="M675.67 439h-2v-1.03h2zM715.76 320l-14.26 4.64v-9.28z"/><path d="M719 320l-18.5 6v-12zm-16.5 3.26l10.03-3.26-10.03-3.26z"/><g><use xlink:href="#V" transform="matrix(1,0,0,1,628.1916666666666,370.7333333333333) translate(0.005000000000002558 14.4)"/><use xlink:href="#W" transform="matrix(1,0,0,1,628.1916666666666,370.7333333333333) translate(41.955000000000005 14.4)"/><use xlink:href="#aj" transform="matrix(1,0,0,1,628.1916666666666,370.7333333333333) translate(19.78 36)"/></g><path d="M898 625.33H714.67V598.5" stroke="#000" stroke-width="2" fill="none"/><path d="M899 626.33h-1.03v-2H899z"/><path d="M714.67 583.24l4.63 14.26h-9.27z" stroke="#000" stroke-width="2"/><g><use xlink:href="#ak" transform="matrix(1,0,0,1,748.4083333333333,629.3333333333334) translate(0.005000000000002558 14.4)"/><use xlink:href="#al" transform="matrix(1,0,0,1,748.4083333333333,629.3333333333334) translate(60.90500000000001 14.4)"/><use xlink:href="#Q" transform="matrix(1,0,0,1,748.4083333333333,629.3333333333334) translate(10.505000000000003 36)"/></g><defs><path d="M266 0h-40l-56-210L115 0H75L2-248h35L96-30l15-64 43-154h32l59 218 59-218h35" id="am"/><path d="M106-169C34-169 62-67 57 0H25v-261h32l-1 103c12-21 28-36 61-36 89 0 53 116 60 194h-32v-121c2-32-8-49-39-48" id="an"/><path d="M24-231v-30h32v30H24zM24 0v-190h32V0H24" id="ao"/><path d="M59-47c-2 24 18 29 38 22v24C64 9 27 4 27-40v-127H5v-23h24l9-43h21v43h35v23H59v120" id="ap"/><path d="M100-194c63 0 86 42 84 106H49c0 40 14 67 53 68 26 1 43-12 49-29l28 8c-11 28-37 45-77 45C44 4 14-33 15-96c1-61 26-98 85-98zm52 81c6-60-76-77-97-28-3 7-6 17-6 28h103" id="aq"/><path d="M143 4C61 4 22-44 18-125c-5-107 100-154 193-111 17 8 29 25 37 43l-32 9c-13-25-37-40-76-40-61 0-88 39-88 99 0 61 29 100 91 101 35 0 62-11 79-27v-45h-74v-28h105v86C228-13 192 4 143 4" id="ar"/><path d="M24 0v-261h32V0H24" id="as"/><path d="M100-194c62-1 85 37 85 99 1 63-27 99-86 99S16-35 15-95c0-66 28-99 85-99zM99-20c44 1 53-31 53-75 0-43-8-75-51-75s-53 32-53 75 10 74 51 75" id="at"/><path d="M108 0H70L1-190h34L89-25l56-165h34" id="au"/><g id="a"><use transform="matrix(0.05,0,0,0.05,0,0)" xlink:href="#am"/><use transform="matrix(0.05,0,0,0.05,16.95,0)" xlink:href="#an"/><use transform="matrix(0.05,0,0,0.05,26.950000000000003,0)" xlink:href="#ao"/><use transform="matrix(0.05,0,0,0.05,30.899999999999995,0)" xlink:href="#ap"/><use transform="matrix(0.05,0,0,0.05,35.9,0)" xlink:href="#aq"/><use transform="matrix(0.05,0,0,0.05,45.9,0)" xlink:href="#ar"/><use transform="matrix(0.05,0,0,0.05,59.900000000000006,0)" xlink:href="#as"/><use transform="matrix(0.05,0,0,0.05,63.85,0)" xlink:href="#at"/><use transform="matrix(0.05,0,0,0.05,73.85,0)" xlink:href="#au"/><use transform="matrix(0.05,0,0,0.05,82.85,0)" xlink:href="#aq"/></g><path d="M87 75C49 33 22-17 22-94c0-76 28-126 65-167h31c-38 41-64 92-64 168S80 34 118 75H87" id="av"/><path d="M33-261c38 41 65 92 65 168S71 34 33 75H2C39 34 66-17 66-93S39-220 2-261h31" id="aw"/><g id="b"><use transform="matrix(0.05,0,0,0.05,0,0)" xlink:href="#av"/><use transform="matrix(0.05,0,0,0.05,5.95,0)" xlink:href="#am"/><use transform="matrix(0.05,0,0,0.05,22.9,0)" xlink:href="#ar"/><use transform="matrix(0.05,0,0,0.05,36.9,0)" xlink:href="#aw"/></g><path d="M275 0h-61l-44-196L126 0H64L0-248h53L97-49l45-199h58l43 199 44-199h52" id="ax"/><path d="M67-125c0 54 23 88 75 88 28 0 53-7 68-21v-34h-60v-39h108v91C232-14 192 4 140 4 58 4 20-42 15-125 8-236 126-280 215-234c19 10 29 26 37 47l-47 15c-11-23-29-39-63-39-53 1-75 33-75 86" id="ay"/><g id="c"><use transform="matrix(0.04938271604938272,0,0,0.04938271604938272,0,0)" xlink:href="#ax"/><use transform="matrix(0.04938271604938272,0,0,0.04938271604938272,16.74074074074074,0)" xlink:href="#ay"/></g><path d="M199 0l-22-63H83L61 0H9l90-248h61L250 0h-51zm-33-102l-36-108c-10 38-24 72-36 108h72" id="az"/><path d="M24-248c93 1 206-16 204 79-1 75-69 88-152 82V0H24v-248zm52 121c47 0 100 7 100-41 0-47-54-39-100-39v80" id="aA"/><path d="M24 0v-248h52V0H24" id="aB"/><g id="d"><use transform="matrix(0.04938271604938272,0,0,0.04938271604938272,0,0)" xlink:href="#az"/><use transform="matrix(0.04938271604938272,0,0,0.04938271604938272,12.790123456790125,0)" xlink:href="#aA"/><use transform="matrix(0.04938271604938272,0,0,0.04938271604938272,24.641975308641978,0)" xlink:href="#aB"/></g><path d="M24 0v-248h52v208h133V0H24" id="aC"/><path d="M133-34C117-15 103 5 69 4 32 3 11-16 11-54c-1-60 55-63 116-61 1-26-3-47-28-47-18 1-26 9-28 27l-52-2c7-38 36-58 82-57s74 22 75 68l1 82c-1 14 12 18 25 15v27c-30 8-71 5-69-32zm-48 3c29 0 43-24 42-57-32 0-66-3-65 30 0 17 8 27 23 27" id="aD"/><path d="M220-157c-53 9-28 100-34 157h-49v-107c1-27-5-49-29-50C55-147 81-57 75 0H25l-1-190h47c2 12-1 28 3 38 10-53 101-56 108 0 13-22 24-43 59-42 82 1 51 116 57 194h-49v-107c-1-25-5-48-29-50" id="aE"/><path d="M135-194c52 0 70 43 70 98 0 56-19 99-73 100-30 1-46-15-58-35L72 0H24l1-261h50v104c11-23 29-37 60-37zM114-30c31 0 40-27 40-66 0-37-7-63-39-63s-41 28-41 65c0 36 8 64 40 64" id="aF"/><path d="M88-194c31-1 46 15 58 34l-1-101h50l1 261h-48c-2-10 0-23-3-31C134-8 116 4 84 4 32 4 16-41 15-95c0-56 19-97 73-99zm17 164c33 0 40-30 41-66 1-37-9-64-41-64s-38 30-39 65c0 43 13 65 39 65" id="aG"/><g id="e"><use transform="matrix(0.04938271604938272,0,0,0.04938271604938272,0,0)" xlink:href="#aC"/><use transform="matrix(0.04938271604938272,0,0,0.04938271604938272,10.814814814814815,0)" xlink:href="#aD"/><use transform="matrix(0.04938271604938272,0,0,0.04938271604938272,20.69135802469136,0)" xlink:href="#aE"/><use transform="matrix(0.04938271604938272,0,0,0.04938271604938272,36.49382716049383,0)" xlink:href="#aF"/><use transform="matrix(0.04938271604938272,0,0,0.04938271604938272,47.308641975308646,0)" xlink:href="#aG"/><use transform="matrix(0.04938271604938272,0,0,0.04938271604938272,58.12345679012346,0)" xlink:href="#aD"/></g><g id="f"><use transform="matrix(0.04938271604938272,0,0,0.04938271604938272,0,0)" xlink:href="#am"/><use transform="matrix(0.04938271604938272,0,0,0.04938271604938272,16.74074074074074,0)" xlink:href="#an"/><use transform="matrix(0.04938271604938272,0,0,0.04938271604938272,26.617283950617285,0)" xlink:href="#ao"/><use transform="matrix(0.04938271604938272,0,0,0.04938271604938272,30.518518518518523,0)" xlink:href="#ap"/><use transform="matrix(0.04938271604938272,0,0,0.04938271604938272,35.45679012345679,0)" xlink:href="#aq"/><use transform="matrix(0.04938271604938272,0,0,0.04938271604938272,45.333333333333336,0)" xlink:href="#ar"/><use transform="matrix(0.04938271604938272,0,0,0.04938271604938272,59.1604938271605,0)" xlink:href="#as"/><use transform="matrix(0.04938271604938272,0,0,0.04938271604938272,63.06172839506172,0)" xlink:href="#at"/><use transform="matrix(0.04938271604938272,0,0,0.04938271604938272,72.93827160493828,0)" xlink:href="#au"/><use transform="matrix(0.04938271604938272,0,0,0.04938271604938272,81.82716049382717,0)" xlink:href="#aq"/></g><path d="M205 0l-28-72H64L36 0H1l101-248h38L239 0h-34zm-38-99l-47-123c-12 45-31 82-46 123h93" id="aH"/><path d="M30-248c87 1 191-15 191 75 0 78-77 80-158 76V0H30v-248zm33 125c57 0 124 11 124-50 0-59-68-47-124-48v98" id="aI"/><path d="M33 0v-248h34V0H33" id="aJ"/><g id="g"><use transform="matrix(0.04938271604938272,0,0,0.04938271604938272,0,0)" xlink:href="#aH"/><use transform="matrix(0.04938271604938272,0,0,0.04938271604938272,11.851851851851853,0)" xlink:href="#aI"/><use transform="matrix(0.04938271604938272,0,0,0.04938271604938272,23.703703703703706,0)" xlink:href="#aJ"/></g><path d="M114-163C36-179 61-72 57 0H25l-1-190h30c1 12-1 29 2 39 6-27 23-49 58-41v29" id="aK"/><path d="M84 4C-5 8 30-112 23-190h32v120c0 31 7 50 39 49 72-2 45-101 50-169h31l1 190h-30c-1-10 1-25-2-33-11 22-28 36-60 37" id="aL"/><path d="M117-194c89-4 53 116 60 194h-32v-121c0-31-8-49-39-48C34-167 62-67 57 0H25l-1-190h30c1 10-1 24 2 32 11-22 29-35 61-36" id="aM"/><path d="M177-190C167-65 218 103 67 71c-23-6-38-20-44-43l32-5c15 47 100 32 89-28v-30C133-14 115 1 83 1 29 1 15-40 15-95c0-56 16-97 71-98 29-1 48 16 59 35 1-10 0-23 2-32h30zM94-22c36 0 50-32 50-73 0-42-14-75-50-75-39 0-46 34-46 75s6 73 46 73" id="aN"/><g id="h"><use transform="matrix(0.04938271604938272,0,0,0.04938271604938272,0,0)" xlink:href="#aK"/><use transform="matrix(0.04938271604938272,0,0,0.04938271604938272,5.8765432098765435,0)" xlink:href="#aL"/><use transform="matrix(0.04938271604938272,0,0,0.04938271604938272,15.753086419753087,0)" xlink:href="#aM"/><use transform="matrix(0.04938271604938272,0,0,0.04938271604938272,25.629629629629633,0)" xlink:href="#aM"/><use transform="matrix(0.04938271604938272,0,0,0.04938271604938272,35.50617283950618,0)" xlink:href="#ao"/><use transform="matrix(0.04938271604938272,0,0,0.04938271604938272,39.40740740740741,0)" xlink:href="#aM"/><use transform="matrix(0.04938271604938272,0,0,0.04938271604938272,49.283950617283956,0)" xlink:href="#aN"/></g><g id="i"><use transform="matrix(0.04938271604938272,0,0,0.04938271604938272,0,0)" xlink:href="#ao"/><use transform="matrix(0.04938271604938272,0,0,0.04938271604938272,3.901234567901235,0)" xlink:href="#aM"/></g><path d="M30 0v-248h33v221h125V0H30" id="aO"/><path d="M141-36C126-15 110 5 73 4 37 3 15-17 15-53c-1-64 63-63 125-63 3-35-9-54-41-54-24 1-41 7-42 31l-33-3c5-37 33-52 76-52 45 0 72 20 72 64v82c-1 20 7 32 28 27v20c-31 9-61-2-59-35zM48-53c0 20 12 33 32 33 41-3 63-29 60-74-43 2-92-5-92 41" id="aP"/><path d="M210-169c-67 3-38 105-44 169h-31v-121c0-29-5-50-35-48C34-165 62-65 56 0H25l-1-190h30c1 10-1 24 2 32 10-44 99-50 107 0 11-21 27-35 58-36 85-2 47 119 55 194h-31v-121c0-29-5-49-35-48" id="aQ"/><path d="M115-194c53 0 69 39 70 98 0 66-23 100-70 100C84 3 66-7 56-30L54 0H23l1-261h32v101c10-23 28-34 59-34zm-8 174c40 0 45-34 45-75 0-40-5-75-45-74-42 0-51 32-51 76 0 43 10 73 51 73" id="aR"/><path d="M85-194c31 0 48 13 60 33l-1-100h32l1 261h-30c-2-10 0-23-3-31C134-8 116 4 85 4 32 4 16-35 15-94c0-66 23-100 70-100zm9 24c-40 0-46 34-46 75 0 40 6 74 45 74 42 0 51-32 51-76 0-42-9-74-50-73" id="aS"/><g id="j"><use transform="matrix(0.04938271604938272,0,0,0.04938271604938272,0,0)" xlink:href="#aO"/><use transform="matrix(0.04938271604938272,0,0,0.04938271604938272,9.876543209876544,0)" xlink:href="#aP"/><use transform="matrix(0.04938271604938272,0,0,0.04938271604938272,19.75308641975309,0)" xlink:href="#aQ"/><use transform="matrix(0.04938271604938272,0,0,0.04938271604938272,34.51851851851852,0)" xlink:href="#aR"/><use transform="matrix(0.04938271604938272,0,0,0.04938271604938272,44.39506172839506,0)" xlink:href="#aS"/><use transform="matrix(0.04938271604938272,0,0,0.04938271604938272,54.27160493827161,0)" xlink:href="#aP"/></g><path d="M135-194c87-1 58 113 63 194h-50c-7-57 23-157-34-157-59 0-34 97-39 157H25l-1-190h47c2 12-1 28 3 38 12-26 28-41 61-42" id="aT"/><path d="M121-226c-27-7-43 5-38 36h38v33H83V0H34v-157H6v-33h28c-9-59 32-81 87-68v32" id="aU"/><path d="M135-150c-39-12-60 13-60 57V0H25l-1-190h47c2 13-1 29 3 40 6-28 27-53 61-41v41" id="aV"/><path d="M137-138c1-29-70-34-71-4 15 46 118 7 119 86 1 83-164 76-172 9l43-7c4 19 20 25 44 25 33 8 57-30 24-41C81-84 22-81 20-136c-2-80 154-74 161-7" id="aW"/><path d="M115-3C79 11 28 4 28-45v-112H4v-33h27l15-45h31v45h36v33H77v99c-1 23 16 31 38 25v30" id="aX"/><path d="M85 4C-2 5 27-109 22-190h50c7 57-23 150 33 157 60-5 35-97 40-157h50l1 190h-47c-2-12 1-28-3-38-12 25-28 42-61 42" id="aY"/><path d="M190-63c-7 42-38 67-86 67-59 0-84-38-90-98-12-110 154-137 174-36l-49 2c-2-19-15-32-35-32-30 0-35 28-38 64-6 74 65 87 74 30" id="aZ"/><path d="M185-48c-13 30-37 53-82 52C43 2 14-33 14-96s30-98 90-98c62 0 83 45 84 108H66c0 31 8 55 39 56 18 0 30-7 34-22zm-45-69c5-46-57-63-70-21-2 6-4 13-4 21h74" id="ba"/><g id="k"><use transform="matrix(0.05,0,0,0.05,0,0)" xlink:href="#aB"/><use transform="matrix(0.05,0,0,0.05,5,0)" xlink:href="#aT"/><use transform="matrix(0.05,0,0,0.05,15.950000000000001,0)" xlink:href="#aU"/><use transform="matrix(0.05,0,0,0.05,21.900000000000002,0)" xlink:href="#aV"/><use transform="matrix(0.05,0,0,0.05,28.900000000000002,0)" xlink:href="#aD"/><use transform="matrix(0.05,0,0,0.05,38.900000000000006,0)" xlink:href="#aW"/><use transform="matrix(0.05,0,0,0.05,48.900000000000006,0)" xlink:href="#aX"/><use transform="matrix(0.05,0,0,0.05,54.85,0)" xlink:href="#aV"/><use transform="matrix(0.05,0,0,0.05,61.85,0)" xlink:href="#aY"/><use transform="matrix(0.05,0,0,0.05,72.80000000000001,0)" xlink:href="#aZ"/><use transform="matrix(0.05,0,0,0.05,82.80000000000001,0)" xlink:href="#aX"/><use transform="matrix(0.05,0,0,0.05,88.75000000000001,0)" xlink:href="#aY"/><use transform="matrix(0.05,0,0,0.05,99.70000000000002,0)" xlink:href="#aV"/><use transform="matrix(0.05,0,0,0.05,106.7,0)" xlink:href="#ba"/></g><path d="M240 0l2-218c-23 76-54 145-80 218h-23L58-218 59 0H30v-248h44l77 211c21-75 51-140 76-211h43V0h-30" id="bb"/><g id="l"><use transform="matrix(0.05,0,0,0.05,0,0)" xlink:href="#bb"/><use transform="matrix(0.05,0,0,0.05,14.950000000000001,0)" xlink:href="#aP"/><use transform="matrix(0.05,0,0,0.05,24.950000000000003,0)" xlink:href="#aM"/><use transform="matrix(0.05,0,0,0.05,34.95,0)" xlink:href="#aP"/><use transform="matrix(0.05,0,0,0.05,44.95,0)" xlink:href="#aN"/><use transform="matrix(0.05,0,0,0.05,54.95,0)" xlink:href="#aq"/></g><path d="M135-143c-3-34-86-38-87 0 15 53 115 12 119 90S17 21 10-45l28-5c4 36 97 45 98 0-10-56-113-15-118-90-4-57 82-63 122-42 12 7 21 19 24 35" id="bc"/><path d="M96-169c-40 0-48 33-48 73s9 75 48 75c24 0 41-14 43-38l32 2c-6 37-31 61-74 61-59 0-76-41-82-99-10-93 101-131 147-64 4 7 5 14 7 22l-32 3c-4-21-16-35-41-35" id="bd"/><g id="m"><use transform="matrix(0.05,0,0,0.05,0,0)" xlink:href="#bc"/><use transform="matrix(0.05,0,0,0.05,9,0)" xlink:href="#bd"/><use transform="matrix(0.05,0,0,0.05,18,0)" xlink:href="#at"/><use transform="matrix(0.05,0,0,0.05,28,0)" xlink:href="#aK"/><use transform="matrix(0.05,0,0,0.05,33.95,0)" xlink:href="#aq"/><use transform="matrix(0.05,0,0,0.05,43.95,0)" xlink:href="#bd"/><use transform="matrix(0.05,0,0,0.05,52.95,0)" xlink:href="#aP"/><use transform="matrix(0.05,0,0,0.05,62.95,0)" xlink:href="#aK"/><use transform="matrix(0.05,0,0,0.05,68.9,0)" xlink:href="#aS"/><use transform="matrix(0.05,0,0,0.05,78.9,0)" xlink:href="#bc"/></g><g id="n"><use transform="matrix(0.05,0,0,0.05,0,0)" xlink:href="#aP"/><use transform="matrix(0.05,0,0,0.05,10,0)" xlink:href="#aM"/><use transform="matrix(0.05,0,0,0.05,20,0)" xlink:href="#aS"/></g><g id="o"><use transform="matrix(0.05,0,0,0.05,0,0)" xlink:href="#aK"/><use transform="matrix(0.05,0,0,0.05,5.95,0)" xlink:href="#aq"/><use transform="matrix(0.05,0,0,0.05,15.949999999999998,0)" xlink:href="#as"/><use transform="matrix(0.05,0,0,0.05,19.9,0)" xlink:href="#aP"/><use transform="matrix(0.05,0,0,0.05,29.899999999999995,0)" xlink:href="#ap"/><use transform="matrix(0.05,0,0,0.05,34.9,0)" xlink:href="#aq"/><use transform="matrix(0.05,0,0,0.05,44.9,0)" xlink:href="#aS"/></g><g id="p"><use transform="matrix(0.05,0,0,0.05,0,0)" xlink:href="#aS"/><use transform="matrix(0.05,0,0,0.05,10,0)" xlink:href="#at"/><use transform="matrix(0.05,0,0,0.05,20,0)" xlink:href="#aQ"/><use transform="matrix(0.05,0,0,0.05,34.95,0)" xlink:href="#aP"/><use transform="matrix(0.05,0,0,0.05,44.95,0)" xlink:href="#ao"/><use transform="matrix(0.05,0,0,0.05,48.900000000000006,0)" xlink:href="#aM"/><use transform="matrix(0.05,0,0,0.05,58.900000000000006,0)" xlink:href="#bc"/></g><path d="M24-248c120-7 223 5 221 122C244-46 201 0 124 0H24v-248zM76-40c74 7 117-18 117-86 0-67-45-88-117-82v168" id="be"/><path d="M123 10C108 53 80 86 19 72V37c35 8 53-11 59-39L3-190h52l48 148c12-52 28-100 44-148h51" id="bf"/><path d="M110-194c64 0 96 36 96 99 0 64-35 99-97 99-61 0-95-36-95-99 0-62 34-99 96-99zm-1 164c35 0 45-28 45-65 0-40-10-65-43-65-34 0-45 26-45 65 0 36 10 65 43 65" id="bg"/><g id="q"><use transform="matrix(0.05,0,0,0.05,0,0)" xlink:href="#be"/><use transform="matrix(0.05,0,0,0.05,12.950000000000001,0)" xlink:href="#bf"/><use transform="matrix(0.05,0,0,0.05,22.950000000000003,0)" xlink:href="#aT"/><use transform="matrix(0.05,0,0,0.05,33.900000000000006,0)" xlink:href="#aD"/><use transform="matrix(0.05,0,0,0.05,43.900000000000006,0)" xlink:href="#be"/><use transform="matrix(0.05,0,0,0.05,56.85,0)" xlink:href="#bg"/><use transform="matrix(0.05,0,0,0.05,67.80000000000001,0)" xlink:href="#aX"/></g><path d="M233-177c-1 41-23 64-60 70L243 0h-38l-65-103H63V0H30v-248c88 3 205-21 203 71zM63-129c60-2 137 13 137-47 0-61-80-42-137-45v92" id="bh"/><path d="M179-190L93 31C79 59 56 82 12 73V49c39 6 53-20 64-50L1-190h34L92-34l54-156h33" id="bi"/><g id="r"><use transform="matrix(0.05,0,0,0.05,0,0)" xlink:href="#bh"/><use transform="matrix(0.05,0,0,0.05,12.950000000000001,0)" xlink:href="#aq"/><use transform="matrix(0.05,0,0,0.05,22.950000000000003,0)" xlink:href="#aN"/><use transform="matrix(0.05,0,0,0.05,32.95,0)" xlink:href="#ao"/><use transform="matrix(0.05,0,0,0.05,36.900000000000006,0)" xlink:href="#bc"/><use transform="matrix(0.05,0,0,0.05,45.900000000000006,0)" xlink:href="#ap"/><use transform="matrix(0.05,0,0,0.05,50.900000000000006,0)" xlink:href="#aK"/><use transform="matrix(0.05,0,0,0.05,56.85,0)" xlink:href="#bi"/></g><path d="M101-234c-31-9-42 10-38 44h38v23H63V0H32v-167H5v-23h27c-7-52 17-82 69-68v24" id="bj"/><g id="s"><use transform="matrix(0.05,0,0,0.05,0,0)" xlink:href="#at"/><use transform="matrix(0.05,0,0,0.05,10,0)" xlink:href="#bj"/></g><g id="t"><use transform="matrix(0.05,0,0,0.05,0,0)" xlink:href="#au"/><use transform="matrix(0.05,0,0,0.05,9,0)" xlink:href="#aP"/><use transform="matrix(0.05,0,0,0.05,19,0)" xlink:href="#as"/><use transform="matrix(0.05,0,0,0.05,22.95,0)" xlink:href="#ao"/><use transform="matrix(0.05,0,0,0.05,26.899999999999995,0)" xlink:href="#aS"/></g><g id="u"><use transform="matrix(0.05,0,0,0.05,0,0)" xlink:href="#aS"/><use transform="matrix(0.05,0,0,0.05,10,0)" xlink:href="#at"/><use transform="matrix(0.05,0,0,0.05,20,0)" xlink:href="#aQ"/><use transform="matrix(0.05,0,0,0.05,34.95,0)" xlink:href="#aP"/><use transform="matrix(0.05,0,0,0.05,44.95,0)" xlink:href="#ao"/><use transform="matrix(0.05,0,0,0.05,48.900000000000006,0)" xlink:href="#aM"/><use transform="matrix(0.05,0,0,0.05,58.900000000000006,0)" xlink:href="#bc"/></g><path d="M232-93c-1 65-40 97-104 97C67 4 28-28 28-90v-158h33c8 89-33 224 67 224 102 0 64-133 71-224h33v155" id="bk"/><path d="M115-194c55 1 70 41 70 98S169 2 115 4C84 4 66-9 55-30l1 105H24l-1-265h31l2 30c10-21 28-34 59-34zm-8 174c40 0 45-34 45-75s-6-73-45-74c-42 0-51 32-51 76 0 43 10 73 51 73" id="bl"/><g id="v"><use transform="matrix(0.05,0,0,0.05,0,0)" xlink:href="#bk"/><use transform="matrix(0.05,0,0,0.05,12.950000000000001,0)" xlink:href="#bl"/><use transform="matrix(0.05,0,0,0.05,22.950000000000003,0)" xlink:href="#aS"/><use transform="matrix(0.05,0,0,0.05,32.95,0)" xlink:href="#aP"/><use transform="matrix(0.05,0,0,0.05,42.95,0)" xlink:href="#ap"/><use transform="matrix(0.05,0,0,0.05,47.95,0)" xlink:href="#aq"/></g><g id="w"><use transform="matrix(0.05,0,0,0.05,0,0)" xlink:href="#aK"/><use transform="matrix(0.05,0,0,0.05,5.95,0)" xlink:href="#aq"/><use transform="matrix(0.05,0,0,0.05,15.949999999999998,0)" xlink:href="#as"/><use transform="matrix(0.05,0,0,0.05,19.9,0)" xlink:href="#aP"/><use transform="matrix(0.05,0,0,0.05,29.899999999999995,0)" xlink:href="#ap"/><use transform="matrix(0.05,0,0,0.05,34.9,0)" xlink:href="#aq"/><use transform="matrix(0.05,0,0,0.05,44.9,0)" xlink:href="#aS"/></g><g id="x"><use transform="matrix(0.05,0,0,0.05,0,0)" xlink:href="#aS"/><use transform="matrix(0.05,0,0,0.05,10,0)" xlink:href="#at"/><use transform="matrix(0.05,0,0,0.05,20,0)" xlink:href="#aQ"/><use transform="matrix(0.05,0,0,0.05,34.95,0)" xlink:href="#aP"/><use transform="matrix(0.05,0,0,0.05,44.95,0)" xlink:href="#ao"/><use transform="matrix(0.05,0,0,0.05,48.900000000000006,0)" xlink:href="#aM"/><use transform="matrix(0.05,0,0,0.05,58.900000000000006,0)" xlink:href="#bc"/></g><path d="M197 0v-115H63V0H30v-248h33v105h134v-105h34V0h-34" id="bm"/><path d="M127-220V0H93v-220H8v-28h204v28h-85" id="bn"/><path d="M185-189c-5-48-123-54-124 2 14 75 158 14 163 119 3 78-121 87-175 55-17-10-28-26-33-46l33-7c5 56 141 63 141-1 0-78-155-14-162-118-5-82 145-84 179-34 5 7 8 16 11 25" id="bo"/><g id="y"><use transform="matrix(0.05,0,0,0.05,0,0)" xlink:href="#av"/><use transform="matrix(0.05,0,0,0.05,5.95,0)" xlink:href="#bm"/><use transform="matrix(0.05,0,0,0.05,18.900000000000002,0)" xlink:href="#bn"/><use transform="matrix(0.05,0,0,0.05,29.85,0)" xlink:href="#bn"/><use transform="matrix(0.05,0,0,0.05,40.800000000000004,0)" xlink:href="#aI"/><use transform="matrix(0.05,0,0,0.05,52.800000000000004,0)" xlink:href="#bo"/><use transform="matrix(0.05,0,0,0.05,64.80000000000001,0)" xlink:href="#aw"/></g><g id="z"><use transform="matrix(0.05,0,0,0.05,0,0)" xlink:href="#aA"/><use transform="matrix(0.05,0,0,0.05,12,0)" xlink:href="#aV"/><use transform="matrix(0.05,0,0,0.05,19,0)" xlink:href="#ba"/><use transform="matrix(0.05,0,0,0.05,29,0)" xlink:href="#aW"/><use transform="matrix(0.05,0,0,0.05,39,0)" xlink:href="#aX"/><use transform="matrix(0.05,0,0,0.05,44.95,0)" xlink:href="#bg"/></g><path d="M126-127c33 6 58 20 58 59 0 88-139 92-164 29-3-8-5-16-6-25l32-3c6 27 21 44 54 44 32 0 52-15 52-46 0-38-36-46-79-43v-28c39 1 72-4 72-42 0-27-17-43-46-43-28 0-47 15-49 41l-32-3c6-42 35-63 81-64 48-1 79 21 79 65 0 36-21 52-52 59" id="bp"/><path d="M0 4l72-265h28L28 4H0" id="bq"/><g id="A"><use transform="matrix(0.05,0,0,0.05,0,0)" xlink:href="#bo"/><use transform="matrix(0.05,0,0,0.05,12,0)" xlink:href="#bp"/><use transform="matrix(0.05,0,0,0.05,22,0)" xlink:href="#bq"/><use transform="matrix(0.05,0,0,0.05,27,0)" xlink:href="#bm"/><use transform="matrix(0.05,0,0,0.05,39.95,0)" xlink:href="#ao"/><use transform="matrix(0.05,0,0,0.05,43.900000000000006,0)" xlink:href="#au"/><use transform="matrix(0.05,0,0,0.05,52.900000000000006,0)" xlink:href="#aq"/></g><path d="M140-251c81 0 123 46 123 126C263-53 228-8 163 1c7 30 30 48 69 40v23c-55 16-95-15-103-61C56-3 17-48 17-125c0-80 42-126 123-126zm0 227c63 0 89-41 89-101s-29-99-89-99c-61 0-89 39-89 99S79-25 140-24" id="br"/><g id="B"><use transform="matrix(0.05,0,0,0.05,0,0)" xlink:href="#br"/><use transform="matrix(0.05,0,0,0.05,14,0)" xlink:href="#aL"/><use transform="matrix(0.05,0,0,0.05,24,0)" xlink:href="#aq"/><use transform="matrix(0.05,0,0,0.05,34,0)" xlink:href="#aK"/><use transform="matrix(0.05,0,0,0.05,39.95,0)" xlink:href="#bi"/></g><path d="M30 0v-248h187v28H63v79h144v27H63v87h162V0H30" id="bs"/><g id="C"><use transform="matrix(0.05,0,0,0.05,0,0)" xlink:href="#bs"/><use transform="matrix(0.05,0,0,0.05,12,0)" xlink:href="#aM"/><use transform="matrix(0.05,0,0,0.05,22,0)" xlink:href="#aN"/><use transform="matrix(0.05,0,0,0.05,32,0)" xlink:href="#ao"/><use transform="matrix(0.05,0,0,0.05,35.95,0)" xlink:href="#aM"/><use transform="matrix(0.05,0,0,0.05,45.95,0)" xlink:href="#aq"/></g><g id="D"><use transform="matrix(0.05,0,0,0.05,0,0)" xlink:href="#br"/><use transform="matrix(0.05,0,0,0.05,14,0)" xlink:href="#aL"/><use transform="matrix(0.05,0,0,0.05,24,0)" xlink:href="#aq"/><use transform="matrix(0.05,0,0,0.05,34,0)" xlink:href="#aK"/><use transform="matrix(0.05,0,0,0.05,39.95,0)" xlink:href="#bi"/></g><g id="E"><use transform="matrix(0.05,0,0,0.05,0,0)" xlink:href="#aS"/><use transform="matrix(0.05,0,0,0.05,10,0)" xlink:href="#at"/><use transform="matrix(0.05,0,0,0.05,20,0)" xlink:href="#aQ"/><use transform="matrix(0.05,0,0,0.05,34.95,0)" xlink:href="#aP"/><use transform="matrix(0.05,0,0,0.05,44.95,0)" xlink:href="#ao"/><use transform="matrix(0.05,0,0,0.05,48.900000000000006,0)" xlink:href="#aM"/></g><g id="F"><use transform="matrix(0.05,0,0,0.05,0,0)" xlink:href="#aK"/><use transform="matrix(0.05,0,0,0.05,5.95,0)" xlink:href="#aq"/><use transform="matrix(0.05,0,0,0.05,15.949999999999998,0)" xlink:href="#aN"/><use transform="matrix(0.05,0,0,0.05,25.950000000000003,0)" xlink:href="#ao"/><use transform="matrix(0.05,0,0,0.05,29.899999999999995,0)" xlink:href="#bc"/><use transform="matrix(0.05,0,0,0.05,38.9,0)" xlink:href="#ap"/><use transform="matrix(0.05,0,0,0.05,43.9,0)" xlink:href="#aK"/><use transform="matrix(0.05,0,0,0.05,49.85,0)" xlink:href="#bi"/></g><g id="G"><use transform="matrix(0.05,0,0,0.05,0,0)" xlink:href="#aH"/><use transform="matrix(0.05,0,0,0.05,12,0)" xlink:href="#aI"/><use transform="matrix(0.05,0,0,0.05,24,0)" xlink:href="#aJ"/></g><path d="M145-31C134-9 116 4 85 4 32 4 16-35 15-94c0-59 17-99 70-100 32-1 48 14 60 33 0-11-1-24 2-32h30l-1 268h-32zM93-21c41 0 51-33 51-76s-8-73-50-73c-40 0-46 35-46 75s5 74 45 74" id="bt"/><g id="H"><use transform="matrix(0.05,0,0,0.05,0,0)" xlink:href="#bh"/><use transform="matrix(0.05,0,0,0.05,12.950000000000001,0)" xlink:href="#aq"/><use transform="matrix(0.05,0,0,0.05,22.950000000000003,0)" xlink:href="#bt"/><use transform="matrix(0.05,0,0,0.05,32.95,0)" xlink:href="#aL"/><use transform="matrix(0.05,0,0,0.05,42.95,0)" xlink:href="#aq"/><use transform="matrix(0.05,0,0,0.05,52.95,0)" xlink:href="#bc"/><use transform="matrix(0.05,0,0,0.05,61.95,0)" xlink:href="#ap"/><use transform="matrix(0.05,0,0,0.05,66.95,0)" xlink:href="#bc"/></g><path d="M212-179c-10-28-35-45-73-45-59 0-87 40-87 99 0 60 29 101 89 101 43 0 62-24 78-52l27 14C228-24 195 4 139 4 59 4 22-46 18-125c-6-104 99-153 187-111 19 9 31 26 39 46" id="bu"/><g id="I"><use transform="matrix(0.05,0,0,0.05,0,0)" xlink:href="#bu"/><use transform="matrix(0.05,0,0,0.05,12.950000000000001,0)" xlink:href="#bh"/><use transform="matrix(0.05,0,0,0.05,25.900000000000002,0)" xlink:href="#bs"/></g><path d="M140-251c81 0 123 46 123 126C263-46 219 4 140 4 59 4 17-45 17-125s42-126 123-126zm0 227c63 0 89-41 89-101s-29-99-89-99c-61 0-89 39-89 99S79-25 140-24" id="bv"/><path d="M195 0l-74-108L45 0H8l94-129-87-119h37l69 98 67-98h37l-84 118L233 0h-38" id="bw"/><path d="M137-103V0h-34v-103L8-248h37l75 118 75-118h37" id="bx"/><g id="J"><use transform="matrix(0.05,0,0,0.05,0,0)" xlink:href="#am"/><use transform="matrix(0.05,0,0,0.05,16.95,0)" xlink:href="#bm"/><use transform="matrix(0.05,0,0,0.05,29.899999999999995,0)" xlink:href="#bv"/><use transform="matrix(0.05,0,0,0.05,43.9,0)" xlink:href="#bw"/><use transform="matrix(0.05,0,0,0.05,55.900000000000006,0)" xlink:href="#bx"/></g><g id="K"><use transform="matrix(0.04938271604938272,0,0,0.04938271604938272,0,0)" xlink:href="#az"/><use transform="matrix(0.04938271604938272,0,0,0.04938271604938272,12.790123456790125,0)" xlink:href="#aA"/><use transform="matrix(0.04938271604938272,0,0,0.04938271604938272,24.641975308641978,0)" xlink:href="#aB"/></g><path d="M231 0h-52l-39-155L100 0H48L-1-190h46L77-45c9-52 24-97 36-145h53l37 145 32-145h46" id="by"/><g id="L"><use transform="matrix(0.04938271604938272,0,0,0.04938271604938272,0,0)" xlink:href="#ay"/><use transform="matrix(0.04938271604938272,0,0,0.04938271604938272,13.827160493827162,0)" xlink:href="#aD"/><use transform="matrix(0.04938271604938272,0,0,0.04938271604938272,23.703703703703706,0)" xlink:href="#aX"/><use transform="matrix(0.04938271604938272,0,0,0.04938271604938272,29.58024691358025,0)" xlink:href="#ba"/><use transform="matrix(0.04938271604938272,0,0,0.04938271604938272,39.4567901234568,0)" xlink:href="#by"/><use transform="matrix(0.04938271604938272,0,0,0.04938271604938272,53.28395061728396,0)" xlink:href="#aD"/><use transform="matrix(0.04938271604938272,0,0,0.04938271604938272,63.16049382716051,0)" xlink:href="#bf"/></g><g id="M"><use transform="matrix(0.04938271604938272,0,0,0.04938271604938272,0,0)" xlink:href="#aH"/><use transform="matrix(0.04938271604938272,0,0,0.04938271604938272,11.209876543209878,0)" xlink:href="#am"/><use transform="matrix(0.04938271604938272,0,0,0.04938271604938272,27.95061728395062,0)" xlink:href="#bo"/></g><g id="N"><use transform="matrix(0.04938271604938272,0,0,0.04938271604938272,0,0)" xlink:href="#aH"/><use transform="matrix(0.04938271604938272,0,0,0.04938271604938272,11.851851851851853,0)" xlink:href="#aI"/><use transform="matrix(0.04938271604938272,0,0,0.04938271604938272,23.703703703703706,0)" xlink:href="#aJ"/></g><path d="M206 0h-36l-40-164L89 0H53L-1-190h32L70-26l43-164h34l41 164 42-164h31" id="bz"/><g id="O"><use transform="matrix(0.04938271604938272,0,0,0.04938271604938272,0,0)" xlink:href="#ar"/><use transform="matrix(0.04938271604938272,0,0,0.04938271604938272,13.827160493827162,0)" xlink:href="#aP"/><use transform="matrix(0.04938271604938272,0,0,0.04938271604938272,23.703703703703706,0)" xlink:href="#ap"/><use transform="matrix(0.04938271604938272,0,0,0.04938271604938272,28.641975308641978,0)" xlink:href="#aq"/><use transform="matrix(0.04938271604938272,0,0,0.04938271604938272,38.51851851851852,0)" xlink:href="#bz"/><use transform="matrix(0.04938271604938272,0,0,0.04938271604938272,51.308641975308646,0)" xlink:href="#aP"/><use transform="matrix(0.04938271604938272,0,0,0.04938271604938272,61.18518518518519,0)" xlink:href="#bi"/></g><g id="P"><use transform="matrix(0.04938271604938272,0,0,0.04938271604938272,0,0)" xlink:href="#bj"/><use transform="matrix(0.04938271604938272,0,0,0.04938271604938272,4.938271604938272,0)" xlink:href="#at"/><use transform="matrix(0.04938271604938272,0,0,0.04938271604938272,14.814814814814817,0)" xlink:href="#aK"/></g><g id="Q"><use transform="matrix(0.05,0,0,0.05,0,0)" xlink:href="#av"/><use transform="matrix(0.05,0,0,0.05,5.95,0)" xlink:href="#aO"/><use transform="matrix(0.05,0,0,0.05,15.949999999999998,0)" xlink:href="#aP"/><use transform="matrix(0.05,0,0,0.05,25.950000000000003,0)" xlink:href="#aQ"/><use transform="matrix(0.05,0,0,0.05,40.9,0)" xlink:href="#aR"/><use transform="matrix(0.05,0,0,0.05,50.9,0)" xlink:href="#aS"/><use transform="matrix(0.05,0,0,0.05,60.900000000000006,0)" xlink:href="#aP"/><use transform="matrix(0.05,0,0,0.05,70.9,0)" xlink:href="#aw"/></g><g id="R"><use transform="matrix(0.05,0,0,0.05,0,0)" xlink:href="#ax"/><use transform="matrix(0.05,0,0,0.05,16.95,0)" xlink:href="#ay"/></g><path d="M136-208V0H84v-208H4v-40h212v40h-80" id="bA"/><path d="M147 0L96-86 75-71V0H25v-261h50v150l67-79h53l-66 74L201 0h-54" id="bB"/><g id="S"><use transform="matrix(0.05,0,0,0.05,0,0)" xlink:href="#bA"/><use transform="matrix(0.05,0,0,0.05,9.600000000000001,0)" xlink:href="#aD"/><use transform="matrix(0.05,0,0,0.05,19.6,0)" xlink:href="#aW"/><use transform="matrix(0.05,0,0,0.05,29.6,0)" xlink:href="#bB"/></g><g id="T"><use transform="matrix(0.05,0,0,0.05,0,0)" xlink:href="#av"/><use transform="matrix(0.05,0,0,0.05,5.95,0)" xlink:href="#aH"/><use transform="matrix(0.05,0,0,0.05,17.95,0)" xlink:href="#aL"/><use transform="matrix(0.05,0,0,0.05,27.950000000000003,0)" xlink:href="#aK"/><use transform="matrix(0.05,0,0,0.05,33.9,0)" xlink:href="#at"/><use transform="matrix(0.05,0,0,0.05,43.9,0)" xlink:href="#aK"/><use transform="matrix(0.05,0,0,0.05,49.85,0)" xlink:href="#aP"/></g><g id="U"><use transform="matrix(0.05,0,0,0.05,0,0)" xlink:href="#aI"/><use transform="matrix(0.05,0,0,0.05,12,0)" xlink:href="#ar"/><use transform="matrix(0.05,0,0,0.05,26,0)" xlink:href="#aw"/></g><path d="M143 0L79-87 56-68V0H24v-261h32v163l83-92h37l-77 82L181 0h-38" id="bC"/><g id="V"><use transform="matrix(0.05,0,0,0.05,0,0)" xlink:href="#bn"/><use transform="matrix(0.05,0,0,0.05,8.950000000000001,0)" xlink:href="#aP"/><use transform="matrix(0.05,0,0,0.05,18.950000000000003,0)" xlink:href="#bc"/><use transform="matrix(0.05,0,0,0.05,27.950000000000003,0)" xlink:href="#bC"/></g><g id="W"><use transform="matrix(0.05,0,0,0.05,0,0)" xlink:href="#bo"/><use transform="matrix(0.05,0,0,0.05,12,0)" xlink:href="#ap"/><use transform="matrix(0.05,0,0,0.05,17,0)" xlink:href="#aP"/><use transform="matrix(0.05,0,0,0.05,27,0)" xlink:href="#ap"/><use transform="matrix(0.05,0,0,0.05,32,0)" xlink:href="#aL"/><use transform="matrix(0.05,0,0,0.05,42,0)" xlink:href="#bc"/></g><g id="X"><use transform="matrix(0.05,0,0,0.05,0,0)" xlink:href="#av"/><use transform="matrix(0.05,0,0,0.05,5.95,0)" xlink:href="#bh"/><use transform="matrix(0.05,0,0,0.05,18.900000000000002,0)" xlink:href="#aq"/><use transform="matrix(0.05,0,0,0.05,28.900000000000002,0)" xlink:href="#aP"/><use transform="matrix(0.05,0,0,0.05,38.900000000000006,0)" xlink:href="#aS"/><use transform="matrix(0.05,0,0,0.05,48.900000000000006,0)" xlink:href="#aw"/></g><path d="M140-251c80 0 125 45 125 126S219 4 139 4C58 4 15-44 15-125s44-126 125-126zm-1 214c52 0 73-35 73-88 0-50-21-86-72-86-52 0-73 35-73 86s22 88 72 88" id="bD"/><path d="M195 0l-88-114-31 24V0H24v-248h52v113l112-113h60L142-143 257 0h-62" id="bE"/><g id="Y"><use transform="matrix(0.05,0,0,0.05,0,0)" xlink:href="#bD"/><use transform="matrix(0.05,0,0,0.05,14,0)" xlink:href="#bE"/><use transform="matrix(0.05,0,0,0.05,26.950000000000003,0)" xlink:href="#bA"/><use transform="matrix(0.05,0,0,0.05,36.550000000000004,0)" xlink:href="#az"/></g><g id="Z"><use transform="matrix(0.05,0,0,0.05,0,0)" xlink:href="#aH"/><use transform="matrix(0.05,0,0,0.05,12,0)" xlink:href="#aL"/><use transform="matrix(0.05,0,0,0.05,22,0)" xlink:href="#ap"/><use transform="matrix(0.05,0,0,0.05,27,0)" xlink:href="#an"/><use transform="matrix(0.05,0,0,0.05,37,0)" xlink:href="#aq"/><use transform="matrix(0.05,0,0,0.05,47,0)" xlink:href="#aM"/><use transform="matrix(0.05,0,0,0.05,57,0)" xlink:href="#ap"/><use transform="matrix(0.05,0,0,0.05,62,0)" xlink:href="#ao"/><use transform="matrix(0.05,0,0,0.05,65.95,0)" xlink:href="#bd"/><use transform="matrix(0.05,0,0,0.05,74.95,0)" xlink:href="#aP"/><use transform="matrix(0.05,0,0,0.05,84.95,0)" xlink:href="#ap"/><use transform="matrix(0.05,0,0,0.05,89.95,0)" xlink:href="#aq"/></g><use transform="matrix(0.05,0,0,0.05,0,0)" xlink:href="#bq" id="aa"/><path d="M9 0v-24l116-142H16v-24h144v24L44-24h123V0H9" id="bF"/><g id="ab"><use transform="matrix(0.05,0,0,0.05,0,0)" xlink:href="#aH"/><use transform="matrix(0.05,0,0,0.05,12,0)" xlink:href="#aL"/><use transform="matrix(0.05,0,0,0.05,22,0)" xlink:href="#ap"/><use transform="matrix(0.05,0,0,0.05,27,0)" xlink:href="#an"/><use transform="matrix(0.05,0,0,0.05,37,0)" xlink:href="#at"/><use transform="matrix(0.05,0,0,0.05,47,0)" xlink:href="#aK"/><use transform="matrix(0.05,0,0,0.05,52.95,0)" xlink:href="#ao"/><use transform="matrix(0.05,0,0,0.05,56.900000000000006,0)" xlink:href="#bF"/><use transform="matrix(0.05,0,0,0.05,65.9,0)" xlink:href="#aq"/><use transform="matrix(0.05,0,0,0.05,75.9,0)" xlink:href="#aS"/></g><g id="ac"><use transform="matrix(0.05,0,0,0.05,0,0)" xlink:href="#bk"/><use transform="matrix(0.05,0,0,0.05,12.950000000000001,0)" xlink:href="#bc"/><use transform="matrix(0.05,0,0,0.05,21.950000000000003,0)" xlink:href="#aq"/><use transform="matrix(0.05,0,0,0.05,31.950000000000003,0)" xlink:href="#aK"/><use transform="matrix(0.05,0,0,0.05,37.900000000000006,0)" xlink:href="#bc"/></g><g id="ad"><use transform="matrix(0.05,0,0,0.05,0,0)" xlink:href="#bk"/><use transform="matrix(0.05,0,0,0.05,12.950000000000001,0)" xlink:href="#bc"/><use transform="matrix(0.05,0,0,0.05,21.950000000000003,0)" xlink:href="#aq"/><use transform="matrix(0.05,0,0,0.05,31.950000000000003,0)" xlink:href="#aK"/></g><path d="M137 0h-34L2-248h35l83 218 83-218h36" id="bG"/><g id="ae"><use transform="matrix(0.05,0,0,0.05,0,0)" xlink:href="#bG"/><use transform="matrix(0.05,0,0,0.05,10.65,0)" xlink:href="#aP"/><use transform="matrix(0.05,0,0,0.05,20.65,0)" xlink:href="#as"/><use transform="matrix(0.05,0,0,0.05,24.599999999999998,0)" xlink:href="#ao"/><use transform="matrix(0.05,0,0,0.05,28.549999999999997,0)" xlink:href="#aS"/><use transform="matrix(0.05,0,0,0.05,38.55,0)" xlink:href="#aP"/><use transform="matrix(0.05,0,0,0.05,48.55,0)" xlink:href="#ap"/><use transform="matrix(0.05,0,0,0.05,53.54999999999999,0)" xlink:href="#ao"/><use transform="matrix(0.05,0,0,0.05,57.5,0)" xlink:href="#at"/><use transform="matrix(0.05,0,0,0.05,67.5,0)" xlink:href="#aM"/></g><g id="af"><use transform="matrix(0.04938271604938272,0,0,0.04938271604938272,0,0)" xlink:href="#ax"/><use transform="matrix(0.04938271604938272,0,0,0.04938271604938272,16.39506172839506,0)" xlink:href="#bg"/><use transform="matrix(0.04938271604938272,0,0,0.04938271604938272,27.209876543209873,0)" xlink:href="#aV"/><use transform="matrix(0.04938271604938272,0,0,0.04938271604938272,34.123456790123456,0)" xlink:href="#bB"/><use transform="matrix(0.04938271604938272,0,0,0.04938271604938272,44,0)" xlink:href="#ba"/><use transform="matrix(0.04938271604938272,0,0,0.04938271604938272,53.876543209876544,0)" xlink:href="#aV"/></g><g id="ag"><use transform="matrix(0.04938271604938272,0,0,0.04938271604938272,0,0)" xlink:href="#bn"/><use transform="matrix(0.04938271604938272,0,0,0.04938271604938272,8.839506172839506,0)" xlink:href="#aP"/><use transform="matrix(0.04938271604938272,0,0,0.04938271604938272,18.71604938271605,0)" xlink:href="#bc"/><use transform="matrix(0.04938271604938272,0,0,0.04938271604938272,27.60493827160494,0)" xlink:href="#bC"/></g><g id="ah"><use transform="matrix(0.04938271604938272,0,0,0.04938271604938272,0,0)" xlink:href="#bl"/><use transform="matrix(0.04938271604938272,0,0,0.04938271604938272,9.876543209876544,0)" xlink:href="#aK"/><use transform="matrix(0.04938271604938272,0,0,0.04938271604938272,15.753086419753087,0)" xlink:href="#at"/><use transform="matrix(0.04938271604938272,0,0,0.04938271604938272,25.629629629629633,0)" xlink:href="#bd"/><use transform="matrix(0.04938271604938272,0,0,0.04938271604938272,34.51851851851852,0)" xlink:href="#aq"/><use transform="matrix(0.04938271604938272,0,0,0.04938271604938272,44.39506172839506,0)" xlink:href="#bc"/><use transform="matrix(0.04938271604938272,0,0,0.04938271604938272,53.28395061728394,0)" xlink:href="#bc"/><use transform="matrix(0.04938271604938272,0,0,0.04938271604938272,62.172839506172835,0)" xlink:href="#at"/><use transform="matrix(0.04938271604938272,0,0,0.04938271604938272,72.04938271604938,0)" xlink:href="#aK"/></g><g id="ai"><use transform="matrix(0.04938271604938272,0,0,0.04938271604938272,0,0)" xlink:href="#av"/><use transform="matrix(0.04938271604938272,0,0,0.04938271604938272,5.8765432098765435,0)" xlink:href="#aO"/><use transform="matrix(0.04938271604938272,0,0,0.04938271604938272,15.753086419753087,0)" xlink:href="#aP"/><use transform="matrix(0.04938271604938272,0,0,0.04938271604938272,25.629629629629633,0)" xlink:href="#aQ"/><use transform="matrix(0.04938271604938272,0,0,0.04938271604938272,40.39506172839506,0)" xlink:href="#aR"/><use transform="matrix(0.04938271604938272,0,0,0.04938271604938272,50.27160493827161,0)" xlink:href="#aS"/><use transform="matrix(0.04938271604938272,0,0,0.04938271604938272,60.14814814814815,0)" xlink:href="#aP"/><use transform="matrix(0.04938271604938272,0,0,0.04938271604938272,70.0246913580247,0)" xlink:href="#aw"/></g><g id="aj"><use transform="matrix(0.05,0,0,0.05,0,0)" xlink:href="#av"/><use transform="matrix(0.05,0,0,0.05,5.95,0)" xlink:href="#am"/><use transform="matrix(0.05,0,0,0.05,22.55,0)" xlink:href="#aK"/><use transform="matrix(0.05,0,0,0.05,28.5,0)" xlink:href="#ao"/><use transform="matrix(0.05,0,0,0.05,32.45,0)" xlink:href="#ap"/><use transform="matrix(0.05,0,0,0.05,37.45,0)" xlink:href="#aq"/><use transform="matrix(0.05,0,0,0.05,47.45,0)" xlink:href="#aw"/></g><g id="ak"><use transform="matrix(0.05,0,0,0.05,0,0)" xlink:href="#bo"/><use transform="matrix(0.05,0,0,0.05,12,0)" xlink:href="#aL"/><use transform="matrix(0.05,0,0,0.05,22,0)" xlink:href="#aR"/><use transform="matrix(0.05,0,0,0.05,32,0)" xlink:href="#aQ"/><use transform="matrix(0.05,0,0,0.05,46.95,0)" xlink:href="#ao"/><use transform="matrix(0.05,0,0,0.05,50.900000000000006,0)" xlink:href="#ap"/></g><g id="al"><use transform="matrix(0.05,0,0,0.05,0,0)" xlink:href="#bn"/><use transform="matrix(0.05,0,0,0.05,8.950000000000001,0)" xlink:href="#aP"/><use transform="matrix(0.05,0,0,0.05,18.950000000000003,0)" xlink:href="#bc"/><use transform="matrix(0.05,0,0,0.05,27.950000000000003,0)" xlink:href="#bC"/></g></defs></g></svg>